<svg xmlns="http://www.w3.org/2000/svg" viewBox="0 0 2283.9 3285.2" preserveAspectRatio="none">
<g transform="translate(27.416 27.416)">
	<path fill="#fff" d="M48.9,3248.8c-1-39.5-35.3-76.2-71.4-76.2h-4.8v-41.5v-41.5h3.5c92.3,0,95.9-150.9,3.8-158.7l-7.3-0.6v-32.7
		V2865l8.8-1.2c88.4-11.8,89.7-143.6,1.6-158l-10.4-1.7v-36.7v-36.7h3.5c92.4,0,95.9-150.9,3.8-158.7l-7.3-0.6V2430v-41.4h3.5
		c32.1,0,64-28.3,71.5-63.5c9.8-45.9-27.2-95.5-71.3-95.5h-3.8v-41.4v-41.4l6.7-0.7c91.2-9.2,91.7-150.6,0.5-158.3l-7.3-0.6v-41.2
		v-41.2l7.4-0.6c90.2-7.6,90.2-150.7,0-158.3l-7.4-0.6v-36.7v-36.7l3.1-0.6c1.7-0.3,4.3-0.6,5.8-0.6c15.1,0,39.4-14.1,50.9-29.5
		c36.8-49.5,8.7-120.8-50.8-128.7l-9-1.2v-40.7v-40.7l2.2-0.6c1.2-0.3,3.8-0.6,5.7-0.6c16.2-0.1,39.8-13.5,51.8-29.5
		c37.5-50.1,7.6-122.9-53-129.1l-6.7-0.7v-36.7V1196l8.8-1.2c89.5-11.9,88.5-150.6-1.1-157.8l-7.7-0.6v-41.2v-41.2l6.3-0.6
		c92.1-9.5,90.8-158.7-1.4-158.7h-4.9v-37.5v-37.5h5.3c91.4,0,92.7-150.1,1.4-158.6l-6.7-0.6v-32.7v-32.7l7.2-0.6
		c91.3-7.8,88.7-158.7-2.7-158.7h-4.6v-32.8V270l10.3-1.6c88.4-14,86.2-151.4-2.6-157.5l-7.8-0.5l0.3-33.1l0.3-33.1l7.5-0.6
		c32.9-2.7,62.3-31.6,67.5-66.2l0.7-4.7h47.3h47.3l0.7,5.3C155,65.5,280,64.2,295-23.7l0.6-3.7H336h40.3l1.2,7.2
		c14,82.9,130.8,84.9,149.4,2.5l2.2-9.8h36.3h36.3v2.3c0,9.7,8.6,29.8,17.3,40.6c40.9,50.6,120.4,29.7,133.4-35l1.6-8H790h36.2
		l1.2,7.2c14.1,83.8,133,84.5,149.8,0.9l1.6-8.1h36.2h36.2l1.2,7.1c14.6,84.8,135.5,84.2,150.3-0.8l1.1-6.4h36.4h36.4v2.3
		c0,14.4,13.7,39.6,27.9,51.4c45.3,37.4,112.9,11.5,123.1-47.1l1.1-6.6h40.2h40.2l1.8,8.7c13.3,64.9,94.4,84.8,134.1,32.8
		c8.2-10.7,16.5-30.7,16.5-39.7c0-1.7,1.6-1.8,32.3-1.8h32.3l1.7,8.4c15.2,73.7,111.2,86,143.3,18.4c3.3-6.9,7.5-20.9,7.5-24.9
		c0-1.8,1.9-1.8,40.4-1.8h40.4l0.7,4.7c13.1,87.5,137.9,87.5,151,0l0.7-4.7l32.1,0l32.1,0l0.2,10.2c0.7,41.7,34.7,77.6,73.6,77.7
		l6.8,0v33c0,25.6-0.3,33.1-1.2,33.4c-0.7,0.2-4.2,0.9-7.8,1.5c-80.2,14.8-79.8,140.3,0.5,155.9l8.5,1.6v37.2v37.2l-3.8,0.6
		c-53.2,9.1-81.7,65.8-57.7,114.9c11.6,23.8,29.4,36.8,58.7,43l2.8,0.6v32.9v32.9l-3.8,0.6c-85.6,13.6-87.9,141.6-2.8,157.7l6.6,1.2
		v37.2v37.2l-6.6,1.1c-83.4,14.5-82.6,147,0.9,156.6l5.8,0.7v41.8v41.8l-6.8,1.2c-83.4,14.5-82.6,144.8,0.9,156.8l5.4,0.8l0.3,37.5
		l0.3,37.5l-6.8,1.1c-52.9,8.3-81,76.3-50.4,122.2c13.2,19.7,37.1,35.2,54.4,35.2h2.8l-0.3,41.7l-0.3,41.7l-7.5,1.4
		c-51.8,9.5-78.7,73.8-50.3,120.5c11.7,19.2,38.2,36.7,55.6,36.7h2.8v37.5v37.5l-3.8,0.6c-88.7,14.6-87.9,141.1,1,158l2.8,0.5v41.4
		v41.4l-3.8,0.6c-89.2,14.7-88,140.6,1.5,158.1l2.2,0.4v41.5v41.5l-2.8,0.5c-40.9,7.8-67.2,38.8-67.2,79c0,40.3,26.3,71.3,67.2,79
		l2.8,0.5v41.5v41.5l-2.8,0.5c-88.9,16.9-89.7,143.4-1,158l3.8,0.6v37.2v37.2l-8.5,1.6c-80.2,15.5-80.6,141.3-0.5,155.9
		c3.6,0.7,7.1,1.3,7.8,1.5c1,0.3,1.2,7.8,1.2,33.3v33l-3.8,0.6c-86.6,14.2-88.2,140.5-2,157.5l5.8,1.1v36.8v36.8l-8.2,0.7
		c-36.2,3-62.9,27.7-71.2,65.9l-0.6,2.8H2144h-32.5l-0.6-2.8c-8.7-40.1-38-65.6-75.4-65.6c-37.5,0-66.8,25.5-75.4,65.6l-0.6,2.8
		H1919c-31.6,0-40.6-0.3-40.8-1.2c-0.2-0.7-1.1-4.4-2-8.2c-18.5-77.7-130.9-77.3-147.6,0.5c-0.6,3-1.4,6.3-1.7,7.2
		c-0.6,2.3-65.2,2.8-65.7,0.5c-0.2-0.7-1.1-4.4-2-8.2c-19.5-81.9-131-76.9-149.1,6.7l-0.6,2.8H1469c-31.5,0-40.6-0.3-40.9-1.2
		c-0.2-0.7-1.1-4.4-2-8.2c-16.4-72.2-116.1-79.5-143.9-10.5c-2.4,5.9-3.1,8.4-5.1,17.2l-0.6,2.8H1240c-28.3,0-36.6-0.3-36.9-1.2
		c-0.2-0.7-1.1-4.4-2-8.2c-18.4-79.6-132.2-76.7-148.6,3.7l-1.2,5.8h-36.5c-28.3,0-36.5-0.3-36.8-1.2c-0.2-0.7-1.1-4.4-2-8.2
		c-18.1-78.1-135-76.6-148.1,1.9c-1.4,8.3,2.8,7.6-38.2,7.3l-36.6-0.3l-1.8-7.7c-19.1-81-132-79.1-148.8,2.5l-1.2,5.8l-36.6-0.3
		l-36.6-0.3l-1.8-7.7c-19.1-81-132-79.2-148.8,2.4l-1.2,5.8h-40.7H295l-1.2-6.5c-15.6-82-132.3-81.4-149.2,0.8l-1.2,5.8l-47.2,0
		l-47.2,0L48.9,3248.8L48.9,3248.8z"/>
</g>
</svg>
